<svg xmlns="http://www.w3.org/2000/svg" viewBox="0 0 224.53 158.8"><defs><style>.cls-1{fill:#231f20;}.cls-2{fill:#faa729;stroke:#faa729;stroke-miterlimit:10;}</style></defs><g id="BYN"><path class="cls-1" d="M112.21,125h-2.66c-28.22,0-66-.11-101.76-.21H3.26l4-31.11,8.24,1.23A109.55,109.55,0,0,1,28.43,63.65c13.37-21.94,33.13-36.08,57.24-41l-.13-4.75,1.53-1.24C88,15.88,93.7,12,110.88,12s22.85,3.9,23.81,4.68l1.53,1.24-.16,5.64c46.39,12.77,67.13,63.51,70.15,71.56l9.7-1.35,4,31.07h-4.53C179.56,124.93,140.43,125,112.21,125Zm-99.86-8.2c34.43.1,70.19.16,97.21.2h2.65c27,0,64.06-.1,98.59-.2l-1.8-14-18.44,2.55V94.66L197.1,94c-5.82-13.32-25-50.75-60.75-62l-.9,13.72-8-.37.64-23.11c-2.39-.89-7.58-2.22-17.22-2.22S96.05,21.31,93.66,22.2l.64,23.11-8,.47L85,31C64,35.85,47.32,48.14,35.4,67.58A104,104,0,0,0,24,94.11L29.6,95l.1,10.18-15.56-2.32Z"/><path class="cls-2" d="M65.85,70.31H80.49c3.6,0,6.44,1,8.24,2.79a7.21,7.21,0,0,1,2.17,5.36v.09a7.34,7.34,0,0,1-4.15,6.8c3.65,1.4,5.9,3.52,5.9,7.75v.09c0,5.76-4.68,8.65-11.8,8.65h-15ZM79,83.05c3.06,0,5-1,5-3.33v-.09c0-2.07-1.62-3.24-4.54-3.24H72.61v6.66Zm1.84,12.71c3.06,0,4.91-1.09,4.91-3.43v-.09c0-2.11-1.57-3.42-5.13-3.42h-8v6.94Z"/><path class="cls-2" d="M97,86.16v-.09a16,16,0,0,1,16.45-16.31c5.94,0,9.5,2,12.43,4.87l-4.42,5.09c-2.43-2.21-4.91-3.56-8.06-3.56-5.31,0-9.14,4.42-9.14,9.82v.09c0,5.41,3.74,9.91,9.14,9.91,3.61,0,5.81-1.44,8.29-3.69l4.41,4.46a16.1,16.1,0,0,1-12.93,5.63A15.92,15.92,0,0,1,97,86.16Z"/><path class="cls-2" d="M131.61,70.31H138l14.77,19.41V70.31h6.85v31.53h-5.9l-15.27-20v20h-6.85Z"/><path class="cls-1" d="M12.74,149l2.32-2.77a8.22,8.22,0,0,0,5.33,2.16c1.6,0,2.57-.64,2.57-1.68v-.05c0-1-.61-1.5-3.59-2.27-3.6-.92-5.92-1.91-5.92-5.45v0c0-3.24,2.6-5.38,6.25-5.38a10.35,10.35,0,0,1,6.63,2.26l-2,3A8.43,8.43,0,0,0,19.65,137c-1.5,0-2.3.69-2.3,1.56v.05c0,1.17.77,1.55,3.85,2.34,3.62.95,5.66,2.25,5.66,5.36v.05c0,3.54-2.7,5.53-6.55,5.53A11.32,11.32,0,0,1,12.74,149Z"/><path class="cls-1" d="M30,143.94v-10.2h3.92v10.09c0,2.91,1.46,4.41,3.85,4.41s3.85-1.45,3.85-4.28V133.74h3.93v10.07c0,5.4-3,8.05-7.83,8.05S30,149.19,30,143.94Z"/><path class="cls-1" d="M49.55,133.74h8.28a6.45,6.45,0,0,1,4.67,1.58,4.12,4.12,0,0,1,1.22,3v0a4.17,4.17,0,0,1-2.34,3.85c2.06.78,3.34,2,3.34,4.38v.05c0,3.26-2.66,4.89-6.68,4.89H49.55ZM57,141c1.73,0,2.83-.56,2.83-1.88v0c0-1.17-.92-1.84-2.57-1.84H53.37V141Zm1,7.19c1.73,0,2.78-.61,2.78-1.93v-.06c0-1.19-.9-1.93-2.91-1.93H53.37v3.92Z"/><path class="cls-1" d="M67.16,142.71v-.05a9.07,9.07,0,0,1,9.31-9.23,9.21,9.21,0,0,1,7,2.76L81,139.07a6.58,6.58,0,0,0-4.56-2,5.28,5.28,0,0,0-5.17,5.56v0c0,3.06,2.11,5.61,5.17,5.61a6.45,6.45,0,0,0,4.69-2.09l2.5,2.52a9.12,9.12,0,0,1-7.32,3.19A9,9,0,0,1,67.16,142.71Z"/><path class="cls-1" d="M85.46,142.71v-.05a9.49,9.49,0,0,1,19,0v0a9.49,9.49,0,0,1-19,.05Zm14.86,0v-.05a5.42,5.42,0,0,0-5.4-5.61,5.34,5.34,0,0,0-5.35,5.56v0a5.42,5.42,0,0,0,5.4,5.61A5.34,5.34,0,0,0,100.32,142.71Z"/><path class="cls-1" d="M107.92,133.74h3.62l8.36,11v-11h3.87v17.84h-3.33l-8.65-11.34v11.34h-3.87Z"/><path class="cls-1" d="M132.21,137.36h-5.43v-3.62h14.79v3.62h-5.43v14.22h-3.93Z"/><path class="cls-1" d="M144.57,133.74h8.16a7.11,7.11,0,0,1,5.2,1.81,5.62,5.62,0,0,1,1.53,4.08v.05a5.55,5.55,0,0,1-3.82,5.53l4.36,6.37h-4.59l-3.83-5.71H148.5v5.71h-3.93Zm7.91,8.67c1.91,0,3-1,3-2.53v0c0-1.68-1.17-2.55-3.08-2.55h-3.9v5.13Z"/><path class="cls-1" d="M169.12,133.61h3.62l7.65,18h-4.11l-1.63-4h-7.54l-1.63,4h-4Zm4.13,10.5-2.37-5.78-2.37,5.78Z"/><path class="cls-1" d="M185,137.36h-5.43v-3.62h14.79v3.62h-5.43v14.22H185Z"/><path class="cls-1" d="M201.19,133.61h3.62l7.65,18h-4.11l-1.63-4h-7.55l-1.63,4h-4Zm4.13,10.5L203,138.33l-2.37,5.78Z"/></g></svg>