<?xml version="1.0" encoding="utf-8"?>
<!-- Generator: Adobe Illustrator 24.1.0, SVG Export Plug-In . SVG Version: 6.00 Build 0)  -->
<svg version="1.1" id="Layer_1" xmlns="http://www.w3.org/2000/svg" xmlns:xlink="http://www.w3.org/1999/xlink" x="0px" y="0px"
	 viewBox="0 0 230.7 158" style="enable-background:new 0 0 230.7 158;" xml:space="preserve">
<style type="text/css">
	.st0{display:none;}
	.st1{display:inline;fill:#FFFFFF;}
	.st2{fill:#FFFFFF;}
	.st3{fill:#FFFFFF;stroke:#FFFFFF;stroke-miterlimit:10;}
	.st4{fill:#FFFFFF;stroke:#FFFFFF;}
	.st5{fill:#FAA729;stroke:#FAA729;stroke-miterlimit:10;}
	.st6{fill:none;stroke:#FFFFFF;stroke-width:2;stroke-miterlimit:10;}
	.st7{fill:none;stroke:#248FCE;stroke-width:10;stroke-miterlimit:10;}
	.st8{fill:#248FCE;}
	.st9{fill:none;stroke:#1E334C;stroke-width:2;stroke-miterlimit:10;}
	.st10{fill:#1E324D;}
</style>
<g id="MARCA">
	<g>
		<rect x="-97" y="-63.3" class="st0" width="425.2" height="283.5"/>
	</g>
	<g>
		<path class="st2" d="M117.2,123.1h-2.7c-28.2-0.1-66-0.1-101.8-0.2l-4.5,0l4-31.1l8.2,1.2c1-4.6,4.5-17.5,12.9-31.3
			c13.4-21.9,33.1-36.1,57.2-41L90.5,16l1.5-1.2c1-0.8,6.6-4.7,23.8-4.7s22.9,3.9,23.8,4.7l1.5,1.2l-0.2,5.6
			c46.4,12.8,67.1,63.5,70.1,71.6l9.7-1.3l4,31.1l-4.5,0C184.5,123,145.4,123.1,117.2,123.1z M17.3,114.9
			c34.4,0.1,70.2,0.2,97.2,0.2h2.6c27,0,64.1-0.1,98.6-0.2l-1.8-14.1l-18.4,2.6V92.7l6.5-0.7c-5.8-13.3-25-50.7-60.8-62l-0.9,13.7
			l-8-0.4l0.6-23.1c-2.4-0.9-7.6-2.2-17.2-2.2s-14.8,1.3-17.2,2.2l0.6,23.1l-8,0.5L90,29.1c-21,4.9-37.6,17.2-49.6,36.6
			c-6.6,10.8-10,21.1-11.4,26.5l5.6,0.9l0.1,10.2l-15.6-2.3L17.3,114.9z"/>
	</g>
	<g>
		<g>
			<path class="st3" d="M70.8,68.4h14.6c3.6,0,6.4,1,8.2,2.8c1.4,1.4,2.2,3.2,2.2,5.4v0.1c0,3.6-1.9,5.5-4.1,6.8
				c3.6,1.4,5.9,3.5,5.9,7.8v0.1c0,5.8-4.7,8.7-11.8,8.7h-15V68.4z M84,81.1c3.1,0,5-1,5-3.3v-0.1c0-2.1-1.6-3.2-4.6-3.2h-6.9v6.7
				L84,81.1L84,81.1z M85.8,93.8c3.1,0,4.9-1.1,4.9-3.4v-0.1c0-2.1-1.6-3.4-5.1-3.4h-8v6.9L85.8,93.8L85.8,93.8z"/>
			<path class="st3" d="M102,84.2L102,84.2c0-9,6.8-16.4,16.4-16.4c5.9,0,9.5,2,12.4,4.9l-4.4,5.1c-2.4-2.2-4.9-3.6-8.1-3.6
				c-5.3,0-9.1,4.4-9.1,9.8v0.1c0,5.4,3.7,9.9,9.1,9.9c3.6,0,5.8-1.4,8.3-3.7l4.4,4.5c-3.2,3.5-6.9,5.6-12.9,5.6
				C108.9,100.4,102,93.3,102,84.2z"/>
			<path class="st3" d="M136.6,68.4h6.4l14.8,19.4V68.4h6.8v31.5h-5.9l-15.3-20v20h-6.9L136.6,68.4L136.6,68.4z"/>
		</g>
		<g>
			<path class="st4" d="M17.7,147.1l2.3-2.8c1.6,1.3,3.3,2.2,5.3,2.2c1.6,0,2.6-0.6,2.6-1.7v-0.1c0-1-0.6-1.5-3.6-2.3
				c-3.6-0.9-5.9-1.9-5.9-5.5v-0.1c0-3.2,2.6-5.4,6.2-5.4c2.6,0,4.8,0.8,6.6,2.3l-2,3c-1.6-1.1-3.1-1.8-4.6-1.8s-2.3,0.7-2.3,1.6
				v0.1c0,1.2,0.8,1.6,3.9,2.4c3.6,0.9,5.7,2.2,5.7,5.4v0.1c0,3.5-2.7,5.5-6.6,5.5C22.6,149.9,19.9,149,17.7,147.1z"/>
			<path class="st4" d="M35,142v-10.2h3.9v10.1c0,2.9,1.4,4.4,3.9,4.4s3.9-1.4,3.9-4.3v-10.2h3.9v10.1c0,5.4-3,8.1-7.8,8.1
				C37.9,149.9,35,147.3,35,142z"/>
			<path class="st4" d="M54.5,131.8h8.3c2,0,3.6,0.6,4.7,1.6c0.8,0.8,1.2,1.8,1.2,3v0.1c0,2-1.1,3.1-2.4,3.9c2.1,0.8,3.3,2,3.3,4.4
				v0.1c0,3.3-2.6,4.9-6.7,4.9h-8.5L54.5,131.8L54.5,131.8z M62,139c1.7,0,2.8-0.6,2.8-1.9v-0.1c0-1.2-0.9-1.8-2.6-1.8h-3.9v3.8
				L62,139L62,139z M63,146.2c1.7,0,2.8-0.6,2.8-1.9v-0.1c0-1.2-0.9-1.9-2.9-1.9h-4.5v3.9L63,146.2L63,146.2z"/>
			<path class="st4" d="M72.1,140.8L72.1,140.8c0-5.1,3.8-9.3,9.3-9.3c3.4,0,5.4,1.1,7,2.8l-2.5,2.9c-1.4-1.2-2.8-2-4.6-2
				c-3,0-5.2,2.5-5.2,5.6v0.1c0,3.1,2.1,5.6,5.2,5.6c2,0,3.3-0.8,4.7-2.1l2.5,2.5c-1.8,2-3.9,3.2-7.3,3.2
				C76,150,72.1,145.9,72.1,140.8z"/>
			<path class="st4" d="M90.5,140.8L90.5,140.8c0-5.1,4-9.3,9.5-9.3s9.5,4.1,9.5,9.2v0.1c0,5.1-4,9.2-9.5,9.2
				C94.4,150,90.5,145.9,90.5,140.8z M105.3,140.8L105.3,140.8c0-3.1-2.2-5.7-5.4-5.7c-3.2,0-5.4,2.5-5.4,5.6v0.1
				c0,3.1,2.2,5.6,5.4,5.6S105.3,143.8,105.3,140.8z"/>
			<path class="st4" d="M112.9,131.8h3.6l8.4,11v-11h3.9v17.8h-3.3l-8.6-11.3v11.3h-3.9V131.8z"/>
			<path class="st4" d="M137.2,135.4h-5.4v-3.6h14.8v3.6h-5.4v14.2h-3.9L137.2,135.4L137.2,135.4z"/>
			<path class="st4" d="M149.6,131.8h8.2c2.3,0,4,0.6,5.2,1.8c1,1,1.5,2.4,1.5,4.1v0.1c0,2.9-1.6,4.7-3.8,5.5l4.4,6.4h-4.6l-3.8-5.7
				h-3.1v5.7h-3.9L149.6,131.8L149.6,131.8z M157.5,140.5c1.9,0,3-1,3-2.5v-0.1c0-1.7-1.2-2.6-3.1-2.6h-3.9v5.1L157.5,140.5
				L157.5,140.5z"/>
			<path class="st4" d="M174.1,131.7h3.6l7.7,18h-4.1l-1.6-4h-7.5l-1.6,4h-4L174.1,131.7z M178.2,142.2l-2.4-5.8l-2.4,5.8H178.2z"/>
			<path class="st4" d="M190,135.4h-5.4v-3.6h14.8v3.6h-5.4v14.2H190L190,135.4L190,135.4z"/>
			<path class="st4" d="M206.2,131.7h3.6l7.6,18h-4.1l-1.6-4h-7.5l-1.6,4h-4L206.2,131.7z M210.3,142.2l-2.4-5.8l-2.4,5.8H210.3z"/>
		</g>
	</g>
</g>
<g id="BYN">
</g>
</svg>
