<?xml version="1.0" encoding="utf-8"?>
<!-- Generator: Adobe Illustrator 24.1.0, SVG Export Plug-In . SVG Version: 6.00 Build 0)  -->
<svg version="1.1" xmlns="http://www.w3.org/2000/svg" xmlns:xlink="http://www.w3.org/1999/xlink" x="0px" y="0px"
	 viewBox="0 0 224.53 157.99" style="enable-background:new 0 0 224.53 157.99;" xml:space="preserve">
<style type="text/css">
	.st0{display:none;}
	.st1{display:inline;fill:#FFFFFF;}
	.st2{fill:#FFFFFF;}
	.st3{fill:#FFFFFF;stroke:#FFFFFF;stroke-miterlimit:10;}
	.st4{fill:#FFFFFF;stroke:#FFFFFF;}
	.st5{fill:#FAA729;stroke:#FAA729;stroke-miterlimit:10;}
	.st6{fill:none;stroke:#FFFFFF;stroke-width:2;stroke-miterlimit:10;}
	.st7{fill:none;stroke:#248FCE;stroke-width:10;stroke-miterlimit:10;}
	.st8{fill:#248FCE;}
	.st9{fill:none;stroke:#1E334C;stroke-width:2;stroke-miterlimit:10;}
	.st10{fill:#1E324D;}
</style>
<g id="MARCA">
</g>
<g id="BYN">
	<g>
		<path class="st2" d="M22.53,152.59H17.9l-1.4-3.79h-7.2l-1.4,3.79H3.26l7.64-18.93h3.99L22.53,152.59z M12.92,139.52h-0.05
			l-2.11,5.51h4.27L12.92,139.52z"/>
		<path class="st2" d="M30.03,133.67c3.51,0,6.17,1.91,6.17,5.62c0,2.84-1.56,4.75-3.88,5.48l6.52,7.82h-5.48l-5.78-7.48v7.48h-4.31
			v-18.93H30.03z M28.08,142.06c1.63,0,3.58-0.12,3.58-2.48s-1.95-2.48-3.58-2.48h-0.51v4.96H28.08z"/>
		<path class="st2" d="M52.53,135.11l-1.74,3.44c0,0-1.88-1.31-3.83-1.31c-1.47,0-2.25,0.67-2.25,1.7c0,1.06,1.79,1.81,3.95,2.73
			c2.11,0.89,4.43,2.68,4.43,5.16c0,4.52-3.44,6.1-7.14,6.1c-4.43,0-7.11-2.5-7.11-2.5l2.16-3.62c0,0,2.52,2.13,4.63,2.13
			c0.94,0,2.73-0.09,2.73-1.86c0-1.38-2.02-2-4.27-3.12c-2.27-1.12-3.6-2.89-3.6-4.86c0-3.53,3.12-5.78,6.17-5.78
			C50.1,133.32,52.53,135.11,52.53,135.11z"/>
		<path class="st2" d="M59.41,148.81h6.52v3.79H55.1v-18.93h4.31V148.81z"/>
		<path class="st2" d="M85.66,152.59h-4.63l-1.4-3.79h-7.2l-1.4,3.79h-4.63l7.64-18.93h3.99L85.66,152.59z M76.04,139.52H76
			l-2.11,5.51h4.27L76.04,139.52z"/>
		<path class="st2" d="M90.7,152.59h-4.31v-18.93h4.31l7.53,11.75h0.05v-11.75h4.31v18.93h-4.31l-7.53-11.75H90.7V152.59z"/>
		<path class="st2" d="M121.14,141.97l-3.03,10.62h-4.79l-5.39-18.93h4.79l3.23,12.99h0.12l3.44-12.99h3.26l3.44,12.99h0.11
			l3.23-12.99h4.77l-5.39,18.93h-4.77L121.14,141.97z"/>
		<path class="st2" d="M150.53,152.59h-4.63l-1.4-3.79h-7.2l-1.4,3.79h-4.63l7.64-18.93h3.99L150.53,152.59z M140.91,139.52h-0.05
			l-2.11,5.51h4.27L140.91,139.52z"/>
		<path class="st2" d="M161.33,147.25c0,3.72-2.11,5.69-5.9,5.69c-2.71,0-4.43-1.81-4.43-1.81l1.38-3.6c0,0,1.35,1.28,2.46,1.28
			c1.24,0,2.18-0.76,2.18-2.66v-12.48h4.31V147.25z"/>
		<path class="st2" d="M168.16,152.59h-4.31v-18.93h4.31V152.59z"/>
		<path class="st2" d="M176.4,133.67c5.18,0,9.54,3.95,9.54,9.45c0,5.53-4.34,9.48-9.54,9.48h-5.48v-18.93H176.4z M175.89,148.74
			c3.19,0,5.37-2.43,5.39-5.6c0-3.17-2.18-5.62-5.39-5.62h-0.67v11.22H175.89z"/>
		<path class="st2" d="M206.5,135.11l-1.74,3.44c0,0-1.88-1.31-3.83-1.31c-1.47,0-2.25,0.67-2.25,1.7c0,1.06,1.79,1.81,3.95,2.73
			c2.11,0.89,4.43,2.68,4.43,5.16c0,4.52-3.44,6.1-7.14,6.1c-4.43,0-7.11-2.5-7.11-2.5l2.16-3.62c0,0,2.52,2.13,4.63,2.13
			c0.94,0,2.73-0.09,2.73-1.86c0-1.38-2.02-2-4.27-3.12c-2.27-1.12-3.6-2.89-3.6-4.86c0-3.53,3.12-5.78,6.17-5.78
			C204.06,133.32,206.5,135.11,206.5,135.11z"/>
		<path class="st2" d="M213.37,148.81h6.52v3.79h-10.83v-18.93h4.31V148.81z"/>
	</g>
	<path class="st6" d="M114.38,90.63c-10.52-27.27-36.65-46.55-67.26-46.55"/>
	<path class="st6" d="M109.56,117.04c0-35.5-31.4-64.22-70.2-64.22"/>
	<path class="st6" d="M109.56,117.4c0-37.38,26.62-68.18,62.08-72.74"/>
	<path class="st6" d="M119.34,117.04c0-32.39,26.14-59.14,60.2-63.57"/>
	<g>
		<path class="st2" d="M112.21,125.04h-2.66c-28.22-0.05-65.96-0.11-101.76-0.21l-4.53-0.01l3.99-31.11l8.24,1.23
			c1.05-4.6,4.51-17.45,12.94-31.29c13.37-21.94,33.13-36.08,57.24-41l-0.13-4.74l1.53-1.24c0.96-0.78,6.63-4.68,23.81-4.68
			s22.85,3.9,23.81,4.68l1.53,1.24l-0.16,5.63c46.38,12.77,67.12,63.51,70.15,71.56l9.7-1.34l3.98,31.07l-4.53,0.01
			C179.56,124.93,140.43,125,112.21,125.04z M12.35,116.84c34.43,0.09,70.19,0.15,97.21,0.2h2.65c27.02-0.04,64.06-0.11,98.6-0.2
			l-1.8-14.06l-18.44,2.56V94.66l6.54-0.68c-5.81-13.32-24.98-50.75-60.75-62.02l-0.9,13.72l-7.99-0.37l0.64-23.11
			c-2.38-0.89-7.58-2.22-17.22-2.22s-14.83,1.33-17.22,2.22l0.64,23.11l-7.98,0.47l-1.35-14.8C63.98,35.85,47.32,48.14,35.4,67.58
			c-6.61,10.77-9.98,21.08-11.45,26.54l5.65,0.86l0.1,10.18l-15.56-2.32L12.35,116.84z"/>
	</g>
</g>
</svg>
