<?xml version="1.0" encoding="utf-8"?>
<!-- Generator: Adobe Illustrator 24.1.0, SVG Export Plug-In . SVG Version: 6.00 Build 0)  -->
<svg version="1.1" xmlns="http://www.w3.org/2000/svg" xmlns:xlink="http://www.w3.org/1999/xlink" x="0px" y="0px"
	 viewBox="0 0 224.53 157.99" style="enable-background:new 0 0 224.53 157.99;" xml:space="preserve">
<style type="text/css">
	.st0{display:none;}
	.st1{display:inline;fill:#FFFFFF;}
	.st2{fill:#FFFFFF;}
	.st3{fill:#FFFFFF;stroke:#FFFFFF;stroke-miterlimit:10;}
	.st4{fill:#FFFFFF;stroke:#FFFFFF;}
	.st5{fill:#FAA729;stroke:#FAA729;stroke-miterlimit:10;}
	.st6{fill:none;stroke:#FFFFFF;stroke-width:2;stroke-miterlimit:10;}
	.st7{fill:none;stroke:#248FCE;stroke-width:10;stroke-miterlimit:10;}
	.st8{fill:#248FCE;}
	.st9{fill:none;stroke:#1E334C;stroke-width:2;stroke-miterlimit:10;}
	.st10{fill:#1E324D;}
</style>
<g id="MARCA">
	<g>
		<rect x="-374.62" y="-63.27" class="st0" width="425.2" height="283.46"/>
		<g class="st0">
			<path class="st1" d="M-115.75-42.32v4.79c0,1.81,0.8,2.58,1.88,2.58c1.2,0,1.97-0.79,1.97-2.58v-4.79h1.06v4.71
				c0,2.48-1.31,3.5-3.06,3.5c-1.66,0-2.9-0.95-2.9-3.45v-4.76H-115.75z"/>
			<path class="st1" d="M-109.17-35.51c0.47,0.29,1.15,0.53,1.87,0.53c1.07,0,1.69-0.56,1.69-1.38c0-0.75-0.43-1.19-1.52-1.61
				c-1.32-0.47-2.13-1.15-2.13-2.29c0-1.26,1.04-2.2,2.61-2.2c0.83,0,1.43,0.19,1.79,0.4l-0.29,0.85c-0.26-0.14-0.8-0.38-1.54-0.38
				c-1.1,0-1.52,0.66-1.52,1.21c0,0.76,0.49,1.13,1.61,1.56c1.37,0.53,2.06,1.19,2.06,2.37c0,1.25-0.92,2.33-2.83,2.33
				c-0.78,0-1.63-0.23-2.06-0.52L-109.17-35.51z"/>
			<path class="st1" d="M-96.2-38.36c0,2.78-1.69,4.26-3.75,4.26c-2.13,0-3.63-1.66-3.63-4.1c0-2.57,1.6-4.25,3.75-4.25
				C-97.63-42.45-96.2-40.76-96.2-38.36z M-102.48-38.23c0,1.73,0.94,3.27,2.58,3.27c1.66,0,2.59-1.52,2.59-3.36
				c0-1.61-0.84-3.29-2.58-3.29C-101.61-41.6-102.48-40.01-102.48-38.23z"/>
			<path class="st1" d="M-88.12-38.03h-3.14v2.91h3.5v0.88h-4.55v-8.08h4.37v0.88h-3.32v2.55h3.14V-38.03z"/>
			<path class="st1" d="M-86.4-34.24v-8.08h1.14l2.59,4.09c0.6,0.95,1.07,1.8,1.45,2.63l0.02-0.01c-0.1-1.08-0.12-2.06-0.12-3.32
				v-3.38h0.98v8.08h-1.06l-2.57-4.1c-0.56-0.9-1.1-1.82-1.51-2.7l-0.04,0.01c0.06,1.02,0.08,1.99,0.08,3.33v3.45H-86.4z"/>
			<path class="st1" d="M-75.96-42.32h4.35v0.88h-3.31v2.69h3.06v0.86h-3.06v3.66h-1.04V-42.32z"/>
			<path class="st1" d="M-63.21-38.36c0,2.78-1.69,4.26-3.75,4.26c-2.13,0-3.63-1.66-3.63-4.1c0-2.57,1.6-4.25,3.75-4.25
				C-64.63-42.45-63.21-40.76-63.21-38.36z M-69.48-38.23c0,1.73,0.94,3.27,2.58,3.27c1.66,0,2.59-1.52,2.59-3.36
				c0-1.61-0.84-3.29-2.58-3.29C-68.61-41.6-69.48-40.01-69.48-38.23z"/>
			<path class="st1" d="M-61.85-34.24v-8.08h1.14l2.59,4.09c0.6,0.95,1.07,1.8,1.45,2.63l0.02-0.01c-0.1-1.08-0.12-2.06-0.12-3.32
				v-3.38h0.98v8.08h-1.06l-2.57-4.1c-0.56-0.9-1.1-1.82-1.51-2.7l-0.04,0.01c0.06,1.02,0.08,1.99,0.08,3.33v3.45H-61.85z"/>
			<path class="st1" d="M-53.95-42.21c0.64-0.1,1.39-0.17,2.22-0.17c1.5,0,2.57,0.35,3.27,1.01c0.72,0.66,1.14,1.59,1.14,2.9
				c0,1.32-0.41,2.4-1.16,3.14c-0.76,0.76-2,1.16-3.57,1.16c-0.74,0-1.37-0.04-1.9-0.1V-42.21z M-52.91-35.07
				c0.26,0.05,0.65,0.06,1.06,0.06c2.23,0,3.44-1.25,3.44-3.43c0.01-1.91-1.07-3.12-3.27-3.12c-0.54,0-0.95,0.05-1.22,0.11V-35.07z"
				/>
			<path class="st1" d="M-39.05-38.36c0,2.78-1.69,4.26-3.75,4.26c-2.13,0-3.63-1.66-3.63-4.1c0-2.57,1.6-4.25,3.75-4.25
				C-40.48-42.45-39.05-40.76-39.05-38.36z M-45.32-38.23c0,1.73,0.94,3.27,2.58,3.27c1.66,0,2.59-1.52,2.59-3.36
				c0-1.61-0.84-3.29-2.58-3.29C-44.46-41.6-45.32-40.01-45.32-38.23z"/>
			<path class="st1" d="M-37.83-35.51c0.47,0.29,1.15,0.53,1.87,0.53c1.07,0,1.69-0.56,1.69-1.38c0-0.75-0.43-1.19-1.52-1.61
				c-1.32-0.47-2.13-1.15-2.13-2.29c0-1.26,1.04-2.2,2.61-2.2c0.83,0,1.43,0.19,1.79,0.4l-0.29,0.85c-0.26-0.14-0.8-0.38-1.54-0.38
				c-1.1,0-1.52,0.66-1.52,1.21c0,0.76,0.49,1.13,1.61,1.56c1.37,0.53,2.06,1.19,2.06,2.37c0,1.25-0.92,2.33-2.83,2.33
				c-0.78,0-1.63-0.23-2.06-0.52L-37.83-35.51z"/>
			<path class="st1" d="M-22.32-38.36c0,2.78-1.69,4.26-3.75,4.26c-2.13,0-3.63-1.66-3.63-4.1c0-2.57,1.6-4.25,3.75-4.25
				C-23.75-42.45-22.32-40.76-22.32-38.36z M-28.6-38.23c0,1.73,0.94,3.27,2.58,3.27c1.66,0,2.59-1.52,2.59-3.36
				c0-1.61-0.84-3.29-2.58-3.29C-27.73-41.6-28.6-40.01-28.6-38.23z"/>
			<path class="st1" d="M-21.11-35.51c0.47,0.29,1.15,0.53,1.87,0.53c1.07,0,1.69-0.56,1.69-1.38c0-0.75-0.43-1.19-1.52-1.61
				c-1.32-0.47-2.13-1.15-2.13-2.29c0-1.26,1.04-2.2,2.61-2.2c0.83,0,1.43,0.19,1.79,0.4l-0.29,0.85c-0.26-0.14-0.8-0.38-1.54-0.38
				c-1.1,0-1.52,0.66-1.52,1.21c0,0.76,0.49,1.13,1.61,1.56c1.37,0.53,2.06,1.19,2.06,2.37c0,1.25-0.92,2.33-2.83,2.33
				c-0.78,0-1.63-0.23-2.06-0.52L-21.11-35.51z"/>
			<path class="st1" d="M-9.4-34.5c-0.38,0.19-1.15,0.38-2.13,0.38c-2.28,0-3.99-1.44-3.99-4.09c0-2.53,1.71-4.25,4.22-4.25
				c1.01,0,1.64,0.22,1.92,0.36l-0.25,0.85c-0.4-0.19-0.96-0.34-1.63-0.34c-1.89,0-3.15,1.21-3.15,3.33c0,1.98,1.14,3.25,3.11,3.25
				c0.64,0,1.28-0.13,1.7-0.34L-9.4-34.5z"/>
			<path class="st1" d="M-7.04-42.32v4.79c0,1.81,0.8,2.58,1.88,2.58c1.2,0,1.97-0.79,1.97-2.58v-4.79h1.06v4.71
				c0,2.48-1.31,3.5-3.06,3.5c-1.66,0-2.9-0.95-2.9-3.45v-4.76H-7.04z"/>
			<path class="st1" d="M-0.32-42.21c0.53-0.11,1.28-0.17,2-0.17c1.12,0,1.83,0.2,2.34,0.66c0.41,0.36,0.64,0.91,0.64,1.54
				c0,1.07-0.67,1.77-1.52,2.06v0.04c0.62,0.22,1,0.79,1.19,1.63c0.26,1.13,0.46,1.91,0.62,2.22H3.86
				c-0.13-0.23-0.31-0.92-0.54-1.93c-0.24-1.12-0.67-1.54-1.62-1.57H0.72v3.5h-1.04V-42.21z M0.72-38.53h1.07
				c1.12,0,1.82-0.61,1.82-1.54c0-1.04-0.76-1.5-1.86-1.51c-0.5,0-0.86,0.05-1.03,0.1V-38.53z"/>
			<path class="st1" d="M13.08-38.36c0,2.78-1.69,4.26-3.75,4.26c-2.13,0-3.63-1.66-3.63-4.1c0-2.57,1.6-4.25,3.75-4.25
				C11.65-42.45,13.08-40.76,13.08-38.36z M6.8-38.23c0,1.73,0.94,3.27,2.58,3.27c1.66,0,2.59-1.52,2.59-3.36
				c0-1.61-0.84-3.29-2.58-3.29C7.67-41.6,6.8-40.01,6.8-38.23z"/>
			<path class="st1" d="M14.29-35.51c0.47,0.29,1.15,0.53,1.87,0.53c1.07,0,1.69-0.56,1.69-1.38c0-0.75-0.43-1.19-1.52-1.61
				c-1.32-0.47-2.13-1.15-2.13-2.29c0-1.26,1.04-2.2,2.61-2.2c0.83,0,1.43,0.19,1.79,0.4l-0.29,0.85c-0.26-0.14-0.8-0.38-1.54-0.38
				c-1.1,0-1.52,0.66-1.52,1.21c0,0.76,0.49,1.13,1.61,1.56c1.37,0.53,2.06,1.19,2.06,2.37c0,1.25-0.92,2.33-2.83,2.33
				c-0.78,0-1.63-0.23-2.06-0.52L14.29-35.51z"/>
		</g>
	</g>
	<g>
		<path class="st2" d="M-160.4,123.11h-2.66c-28.22-0.05-65.96-0.11-101.76-0.21l-4.53-0.01l3.99-31.11l8.24,1.23
			c1.05-4.6,4.51-17.45,12.94-31.29c13.37-21.94,33.13-36.08,57.24-41l-0.13-4.74l1.53-1.24c0.96-0.78,6.63-4.68,23.81-4.68
			s22.85,3.9,23.81,4.68l1.53,1.24l-0.16,5.63c46.38,12.77,67.12,63.51,70.15,71.56l9.7-1.34l3.98,31.07l-4.53,0.01
			C-93.06,122.99-132.19,123.06-160.4,123.11z M-260.27,114.91c34.43,0.09,70.19,0.15,97.21,0.2h2.65
			c27.02-0.04,64.06-0.11,98.6-0.2l-1.8-14.06l-18.44,2.56V92.73l6.54-0.68c-5.81-13.32-24.98-50.75-60.75-62.02l-0.9,13.72
			l-7.99-0.37l0.64-23.11c-2.38-0.89-7.58-2.22-17.22-2.22s-14.83,1.33-17.22,2.22l0.64,23.11l-7.98,0.47l-1.35-14.8
			c-20.99,4.87-37.65,17.16-49.57,36.59c-6.61,10.77-9.98,21.08-11.45,26.54l5.65,0.86l0.1,10.18l-15.56-2.32L-260.27,114.91z"/>
	</g>
	<g>
		<g>
			<path class="st3" d="M-206.77,68.37h14.64c3.6,0,6.44,0.99,8.24,2.79c1.44,1.44,2.16,3.2,2.16,5.36v0.09
				c0,3.56-1.89,5.54-4.14,6.8c3.65,1.4,5.9,3.52,5.9,7.75v0.09c0,5.77-4.68,8.65-11.8,8.65h-15V68.37z M-193.61,81.12
				c3.06,0,5-0.99,5-3.33V77.7c0-2.07-1.62-3.24-4.55-3.24h-6.85v6.67H-193.61z M-191.76,93.82c3.06,0,4.91-1.08,4.91-3.42v-0.09
				c0-2.12-1.58-3.42-5.14-3.42h-8.02v6.94H-191.76z"/>
			<path class="st3" d="M-175.64,84.23v-0.09c0-8.96,6.76-16.31,16.44-16.31c5.95,0,9.5,1.98,12.43,4.87l-4.41,5.09
				c-2.43-2.21-4.91-3.56-8.06-3.56c-5.31,0-9.14,4.42-9.14,9.82v0.09c0,5.4,3.74,9.91,9.14,9.91c3.6,0,5.81-1.44,8.29-3.69
				l4.41,4.46c-3.24,3.47-6.85,5.63-12.93,5.63C-168.75,100.44-175.64,93.28-175.64,84.23z"/>
			<path class="st3" d="M-141.01,68.37h6.4l14.78,19.41V68.37h6.85V99.9h-5.9l-15.27-20.04V99.9h-6.85V68.37z"/>
		</g>
		<g>
			<path class="st4" d="M-259.88,147.05l2.32-2.78c1.61,1.33,3.29,2.17,5.33,2.17c1.6,0,2.57-0.64,2.57-1.68v-0.05
				c0-0.99-0.61-1.5-3.59-2.27c-3.59-0.92-5.91-1.91-5.91-5.46v-0.05c0-3.24,2.6-5.38,6.25-5.38c2.6,0,4.82,0.81,6.63,2.27
				l-2.04,2.96c-1.58-1.09-3.14-1.76-4.64-1.76s-2.3,0.69-2.3,1.56v0.05c0,1.17,0.76,1.56,3.85,2.35c3.62,0.94,5.66,2.24,5.66,5.35
				v0.05c0,3.54-2.7,5.53-6.55,5.53C-255.01,149.9-257.73,148.96-259.88,147.05z"/>
			<path class="st4" d="M-242.62,142v-10.2h3.93v10.09c0,2.91,1.45,4.41,3.85,4.41s3.85-1.45,3.85-4.28v-10.22h3.93v10.07
				c0,5.4-3.03,8.05-7.82,8.05C-239.69,149.93-242.62,147.25-242.62,142z"/>
			<path class="st4" d="M-223.07,131.81h8.28c2.04,0,3.64,0.56,4.66,1.58c0.82,0.82,1.22,1.81,1.22,3.03v0.05
				c0,2.01-1.07,3.14-2.35,3.85c2.07,0.79,3.34,1.99,3.34,4.38v0.05c0,3.26-2.65,4.89-6.68,4.89h-8.49V131.81z M-215.63,139.02
				c1.73,0,2.83-0.56,2.83-1.89v-0.05c0-1.17-0.92-1.84-2.58-1.84h-3.87v3.77H-215.63z M-214.58,146.21c1.73,0,2.78-0.61,2.78-1.94
				v-0.05c0-1.2-0.89-1.94-2.91-1.94h-4.54v3.93H-214.58z"/>
			<path class="st4" d="M-205.46,140.78v-0.05c0-5.07,3.82-9.23,9.3-9.23c3.36,0,5.38,1.12,7.04,2.75l-2.5,2.88
				c-1.38-1.25-2.78-2.01-4.56-2.01c-3.01,0-5.17,2.5-5.17,5.56v0.05c0,3.06,2.12,5.61,5.17,5.61c2.04,0,3.29-0.82,4.69-2.09
				l2.5,2.52c-1.83,1.96-3.87,3.19-7.32,3.19C-201.56,149.95-205.46,145.9-205.46,140.78z"/>
			<path class="st4" d="M-187.15,140.78v-0.05c0-5.07,4-9.23,9.51-9.23s9.46,4.1,9.46,9.18v0.05c0,5.07-4,9.23-9.51,9.23
				C-183.2,149.95-187.15,145.85-187.15,140.78z M-172.29,140.78v-0.05c0-3.06-2.24-5.61-5.4-5.61c-3.16,0-5.35,2.5-5.35,5.56v0.05
				c0,3.06,2.24,5.61,5.4,5.61S-172.29,143.84-172.29,140.78z"/>
			<path class="st4" d="M-164.7,131.81h3.62l8.36,10.99v-10.99h3.87v17.84h-3.34l-8.64-11.34v11.34h-3.87V131.81z"/>
			<path class="st4" d="M-140.41,135.43h-5.43v-3.62h14.78v3.62h-5.43v14.22h-3.93V135.43z"/>
			<path class="st4" d="M-128.04,131.81h8.16c2.27,0,4.03,0.64,5.2,1.81c0.99,0.99,1.53,2.4,1.53,4.08v0.05
				c0,2.88-1.56,4.69-3.82,5.53l4.36,6.37h-4.59l-3.82-5.71h-3.08v5.71h-3.93V131.81z M-120.14,140.47c1.91,0,3.01-1.02,3.01-2.52
				v-0.05c0-1.68-1.17-2.55-3.08-2.55h-3.9v5.12H-120.14z"/>
			<path class="st4" d="M-103.5,131.68h3.62l7.65,17.97h-4.1l-1.63-4h-7.54l-1.63,4h-4L-103.5,131.68z M-99.37,142.18l-2.37-5.79
				l-2.37,5.79H-99.37z"/>
			<path class="st4" d="M-87.62,135.43h-5.43v-3.62h14.78v3.62h-5.43v14.22h-3.93V135.43z"/>
			<path class="st4" d="M-71.43,131.68h3.62l7.65,17.97h-4.1l-1.63-4h-7.54l-1.63,4h-4L-71.43,131.68z M-67.3,142.18l-2.37-5.79
				l-2.37,5.79H-67.3z"/>
		</g>
	</g>
</g>
<g id="BYN">
	<g>
		<path d="M-581.07,293.77h-2.66c-28.22-0.05-65.96-0.11-101.76-0.21l-4.53-0.01l3.99-31.11l8.24,1.23
			c1.05-4.6,4.51-17.45,12.94-31.29c13.37-21.94,33.13-36.08,57.24-41l-0.13-4.74l1.53-1.24c0.96-0.78,6.63-4.68,23.81-4.68
			s22.85,3.9,23.81,4.68l1.53,1.24l-0.16,5.63c46.38,12.77,67.12,63.51,70.15,71.56l9.7-1.34l3.98,31.07l-4.53,0.01
			C-513.73,293.66-552.85,293.73-581.07,293.77z M-680.94,285.58c34.43,0.09,70.19,0.15,97.21,0.2h2.65
			c27.02-0.04,64.06-0.11,98.6-0.2l-1.8-14.06l-18.44,2.56V263.4l6.54-0.68c-5.81-13.32-24.98-50.75-60.75-62.02l-0.9,13.72
			l-7.99-0.37l0.64-23.11c-2.38-0.89-7.58-2.22-17.22-2.22s-14.83,1.33-17.22,2.22l0.64,23.11l-7.98,0.47l-1.35-14.8
			c-20.99,4.87-37.65,17.16-49.57,36.59c-6.61,10.77-9.98,21.08-11.45,26.54l5.65,0.86l0.1,10.18l-15.56-2.32L-680.94,285.58z"/>
	</g>
	<g>
		<g>
			<path class="st5" d="M-627.43,239.04h14.64c3.6,0,6.44,0.99,8.24,2.79c1.44,1.44,2.16,3.2,2.16,5.36v0.09
				c0,3.56-1.89,5.54-4.14,6.8c3.65,1.4,5.9,3.52,5.9,7.75v0.09c0,5.77-4.68,8.65-11.8,8.65h-15V239.04z M-614.28,251.79
				c3.06,0,5-0.99,5-3.33v-0.09c0-2.07-1.62-3.24-4.55-3.24h-6.85v6.67H-614.28z M-612.43,264.49c3.06,0,4.91-1.08,4.91-3.42v-0.09
				c0-2.12-1.58-3.42-5.14-3.42h-8.02v6.94H-612.43z"/>
			<path class="st5" d="M-596.31,254.89v-0.09c0-8.96,6.76-16.31,16.44-16.31c5.95,0,9.5,1.98,12.43,4.87l-4.41,5.09
				c-2.43-2.21-4.91-3.56-8.06-3.56c-5.31,0-9.14,4.42-9.14,9.82v0.09c0,5.4,3.74,9.91,9.14,9.91c3.6,0,5.81-1.44,8.29-3.69
				l4.41,4.46c-3.24,3.47-6.85,5.63-12.93,5.63C-589.42,271.11-596.31,263.95-596.31,254.89z"/>
			<path class="st5" d="M-561.67,239.04h6.4l14.78,19.41v-19.41h6.85v31.53h-5.9l-15.27-20.04v20.04h-6.85V239.04z"/>
		</g>
	</g>
	<g>
		<path d="M-581.07,119.77h-2.66c-28.22-0.05-65.96-0.11-101.76-0.21l-4.53-0.01l3.99-31.11l8.24,1.23
			c1.05-4.6,4.51-17.45,12.94-31.29c13.37-21.94,33.13-36.08,57.24-41l-0.13-4.74l1.53-1.24c0.96-0.78,6.63-4.68,23.81-4.68
			s22.85,3.9,23.81,4.68l1.53,1.24l-0.16,5.63c46.38,12.77,67.12,63.51,70.15,71.56l9.7-1.34l3.98,31.07l-4.53,0.01
			C-513.73,119.66-552.85,119.73-581.07,119.77z M-680.94,111.58c34.43,0.09,70.19,0.15,97.21,0.2h2.65
			c27.02-0.04,64.06-0.11,98.6-0.2l-1.8-14.06l-18.44,2.56V89.4l6.54-0.68c-5.81-13.32-24.98-50.75-60.75-62.02l-0.9,13.72
			l-7.99-0.37l0.64-23.11c-2.38-0.89-7.58-2.22-17.22-2.22s-14.83,1.33-17.22,2.22l0.64,23.11l-7.98,0.47l-1.35-14.8
			c-20.99,4.87-37.65,17.16-49.57,36.59c-6.61,10.77-9.98,21.08-11.45,26.54l5.65,0.86l0.1,10.18l-15.56-2.32L-680.94,111.58z"/>
	</g>
	<g>
		<g>
			<path class="st5" d="M-627.43,65.04h14.64c3.6,0,6.44,0.99,8.24,2.79c1.44,1.44,2.16,3.2,2.16,5.36v0.09
				c0,3.56-1.89,5.54-4.14,6.8c3.65,1.4,5.9,3.52,5.9,7.75v0.09c0,5.77-4.68,8.65-11.8,8.65h-15V65.04z M-614.28,77.79
				c3.06,0,5-0.99,5-3.33v-0.09c0-2.07-1.62-3.24-4.55-3.24h-6.85v6.67H-614.28z M-612.43,90.49c3.06,0,4.91-1.08,4.91-3.42v-0.09
				c0-2.12-1.58-3.42-5.14-3.42h-8.02v6.94H-612.43z"/>
			<path class="st5" d="M-596.31,80.89V80.8c0-8.96,6.76-16.31,16.44-16.31c5.95,0,9.5,1.98,12.43,4.87l-4.41,5.09
				c-2.43-2.21-4.91-3.56-8.06-3.56c-5.31,0-9.14,4.42-9.14,9.82v0.09c0,5.4,3.74,9.91,9.14,9.91c3.6,0,5.81-1.44,8.29-3.69
				l4.41,4.46c-3.24,3.47-6.85,5.63-12.93,5.63C-589.42,97.11-596.31,89.95-596.31,80.89z"/>
			<path class="st5" d="M-561.67,65.04h6.4l14.78,19.41V65.04h6.85v31.53h-5.9l-15.27-20.04v20.04h-6.85V65.04z"/>
		</g>
		<g>
			<path d="M-680.54,143.72l2.32-2.78c1.61,1.33,3.29,2.17,5.33,2.17c1.6,0,2.57-0.64,2.57-1.68v-0.05c0-0.99-0.61-1.5-3.59-2.27
				c-3.59-0.92-5.91-1.91-5.91-5.46v-0.05c0-3.24,2.6-5.38,6.25-5.38c2.6,0,4.82,0.81,6.63,2.27l-2.04,2.96
				c-1.58-1.09-3.14-1.76-4.64-1.76c-1.5,0-2.3,0.69-2.3,1.56v0.05c0,1.17,0.76,1.56,3.85,2.35c3.62,0.94,5.66,2.24,5.66,5.35v0.05
				c0,3.54-2.7,5.53-6.55,5.53C-675.67,146.57-678.4,145.63-680.54,143.72z"/>
			<path d="M-663.29,138.67v-10.2h3.92v10.09c0,2.91,1.45,4.41,3.85,4.41c2.4,0,3.85-1.45,3.85-4.28v-10.22h3.92v10.07
				c0,5.4-3.03,8.05-7.82,8.05C-660.36,146.6-663.29,143.92-663.29,138.67z"/>
			<path d="M-643.74,128.47h8.28c2.04,0,3.64,0.56,4.66,1.58c0.82,0.82,1.22,1.81,1.22,3.03v0.05c0,2.01-1.07,3.14-2.35,3.85
				c2.07,0.79,3.34,1.99,3.34,4.38v0.05c0,3.26-2.65,4.89-6.68,4.89h-8.49V128.47z M-636.29,135.69c1.73,0,2.83-0.56,2.83-1.89
				v-0.05c0-1.17-0.92-1.84-2.58-1.84h-3.87v3.77H-636.29z M-635.25,142.88c1.73,0,2.78-0.61,2.78-1.94v-0.05
				c0-1.2-0.89-1.94-2.91-1.94h-4.54v3.93H-635.25z"/>
			<path d="M-626.12,137.45v-0.05c0-5.07,3.82-9.23,9.3-9.23c3.36,0,5.38,1.12,7.04,2.75l-2.5,2.88c-1.38-1.25-2.78-2.01-4.56-2.01
				c-3.01,0-5.17,2.5-5.17,5.56v0.05c0,3.06,2.12,5.61,5.17,5.61c2.04,0,3.29-0.82,4.69-2.09l2.5,2.52
				c-1.83,1.96-3.87,3.19-7.32,3.19C-622.22,146.62-626.12,142.57-626.12,137.45z"/>
			<path d="M-607.82,137.45v-0.05c0-5.07,4-9.23,9.51-9.23s9.46,4.1,9.46,9.18v0.05c0,5.07-4,9.23-9.51,9.23
				C-603.87,146.62-607.82,142.52-607.82,137.45z M-592.96,137.45v-0.05c0-3.06-2.24-5.61-5.4-5.61c-3.16,0-5.35,2.5-5.35,5.56v0.05
				c0,3.06,2.24,5.61,5.4,5.61S-592.96,140.5-592.96,137.45z"/>
			<path d="M-585.36,128.47h3.62l8.36,10.99v-10.99h3.87v17.84h-3.34l-8.64-11.34v11.34h-3.87V128.47z"/>
			<path d="M-561.07,132.09h-5.43v-3.62h14.78v3.62h-5.43v14.22h-3.93V132.09z"/>
			<path d="M-548.71,128.47h8.16c2.27,0,4.03,0.64,5.2,1.81c0.99,0.99,1.53,2.4,1.53,4.08v0.05c0,2.88-1.56,4.69-3.82,5.53
				l4.36,6.37h-4.59l-3.82-5.71h-3.08v5.71h-3.93V128.47z M-540.81,137.14c1.91,0,3.01-1.02,3.01-2.52v-0.05
				c0-1.68-1.17-2.55-3.08-2.55h-3.9v5.12H-540.81z"/>
			<path d="M-524.16,128.35h3.62l7.65,17.97h-4.1l-1.63-4h-7.54l-1.63,4h-4L-524.16,128.35z M-520.03,138.85l-2.37-5.79l-2.37,5.79
				H-520.03z"/>
			<path d="M-508.28,132.09h-5.43v-3.62h14.78v3.62h-5.43v14.22h-3.93V132.09z"/>
			<path d="M-492.1,128.35h3.62l7.65,17.97h-4.1l-1.63-4h-7.54l-1.63,4h-4L-492.1,128.35z M-487.97,138.85l-2.37-5.79l-2.37,5.79
				H-487.97z"/>
		</g>
	</g>
	
		<image style="overflow:visible;" width="678" height="275" xlink:href="../../../../Downloads/WhatsApp Image 2020-04-26 at 23.44.15.jpeg"  transform="matrix(1 0 0 1 -424.653 271.1101)">
	</image>
	<g>
		<path class="st2" d="M277.95,152.59h-4.63l-1.4-3.79h-7.2l-1.4,3.79h-4.63l7.64-18.93h3.99L277.95,152.59z M268.34,139.52h-0.05
			l-2.11,5.51h4.27L268.34,139.52z"/>
		<path class="st2" d="M285.45,133.67c3.51,0,6.17,1.91,6.17,5.62c0,2.84-1.56,4.75-3.88,5.48l6.52,7.82h-5.48l-5.78-7.48v7.48
			h-4.31v-18.93H285.45z M283.5,142.06c1.63,0,3.58-0.12,3.58-2.48s-1.95-2.48-3.58-2.48H283v4.96H283.5z"/>
		<path class="st2" d="M307.95,135.11l-1.74,3.44c0,0-1.88-1.31-3.83-1.31c-1.47,0-2.25,0.67-2.25,1.7c0,1.06,1.79,1.81,3.95,2.73
			c2.11,0.89,4.43,2.68,4.43,5.16c0,4.52-3.44,6.1-7.14,6.1c-4.43,0-7.11-2.5-7.11-2.5l2.16-3.62c0,0,2.52,2.13,4.63,2.13
			c0.94,0,2.73-0.09,2.73-1.86c0-1.38-2.02-2-4.27-3.12c-2.27-1.12-3.6-2.89-3.6-4.86c0-3.53,3.12-5.78,6.17-5.78
			C305.52,133.32,307.95,135.11,307.95,135.11z"/>
		<path class="st2" d="M314.83,148.81h6.52v3.79h-10.83v-18.93h4.31V148.81z"/>
		<path class="st2" d="M341.08,152.59h-4.63l-1.4-3.79h-7.2l-1.4,3.79h-4.63l7.64-18.93h3.99L341.08,152.59z M331.46,139.52h-0.05
			l-2.11,5.51h4.27L331.46,139.52z"/>
		<path class="st2" d="M346.12,152.59h-4.31v-18.93h4.31l7.53,11.75h0.05v-11.75h4.31v18.93h-4.31l-7.53-11.75h-0.05V152.59z"/>
		<path class="st2" d="M376.56,141.97l-3.03,10.62h-4.79l-5.39-18.93h4.79l3.23,12.99h0.12l3.44-12.99h3.26l3.44,12.99h0.11
			l3.23-12.99h4.77l-5.39,18.93h-4.77L376.56,141.97z"/>
		<path class="st2" d="M405.95,152.59h-4.63l-1.4-3.79h-7.2l-1.4,3.79h-4.63l7.64-18.93h3.99L405.95,152.59z M396.33,139.52h-0.05
			l-2.11,5.51h4.27L396.33,139.52z"/>
		<path class="st2" d="M416.75,147.25c0,3.72-2.11,5.69-5.9,5.69c-2.71,0-4.43-1.81-4.43-1.81l1.38-3.6c0,0,1.35,1.28,2.46,1.28
			c1.24,0,2.18-0.76,2.18-2.66v-12.48h4.31V147.25z"/>
		<path class="st2" d="M423.58,152.59h-4.31v-18.93h4.31V152.59z"/>
		<path class="st2" d="M431.82,133.67c5.18,0,9.54,3.95,9.54,9.45c0,5.53-4.34,9.48-9.54,9.48h-5.48v-18.93H431.82z M431.31,148.74
			c3.19,0,5.37-2.43,5.39-5.6c0-3.17-2.18-5.62-5.39-5.62h-0.67v11.22H431.31z"/>
		<path class="st2" d="M461.92,135.11l-1.74,3.44c0,0-1.88-1.31-3.83-1.31c-1.47,0-2.25,0.67-2.25,1.7c0,1.06,1.79,1.81,3.95,2.73
			c2.11,0.89,4.43,2.68,4.43,5.16c0,4.52-3.44,6.1-7.14,6.1c-4.43,0-7.11-2.5-7.11-2.5l2.16-3.62c0,0,2.52,2.13,4.63,2.13
			c0.94,0,2.73-0.09,2.73-1.86c0-1.38-2.02-2-4.27-3.12c-2.27-1.12-3.6-2.89-3.6-4.86c0-3.53,3.12-5.78,6.17-5.78
			C459.48,133.32,461.92,135.11,461.92,135.11z"/>
		<path class="st2" d="M468.79,148.81h6.52v3.79h-10.83v-18.93h4.31V148.81z"/>
	</g>
	<path class="st6" d="M369.8,90.63c-10.52-27.27-36.65-46.55-67.26-46.55"/>
	<path class="st6" d="M364.98,117.04c0-35.5-31.4-64.22-70.2-64.22"/>
	<path class="st6" d="M364.98,117.4c0-37.38,26.62-68.18,62.08-72.74"/>
	<path class="st6" d="M374.76,117.04c0-32.39,26.14-59.14,60.2-63.57"/>
	<g>
		<path class="st2" d="M367.63,125.04h-2.66c-28.22-0.05-65.96-0.11-101.76-0.21l-4.53-0.01l3.99-31.11l8.24,1.23
			c1.05-4.6,4.51-17.45,12.94-31.29c13.37-21.94,33.13-36.08,57.24-41l-0.13-4.74l1.53-1.24c0.96-0.78,6.63-4.68,23.81-4.68
			s22.85,3.9,23.81,4.68l1.53,1.24l-0.16,5.63c46.38,12.77,67.12,63.51,70.15,71.56l9.7-1.34l3.98,31.07l-4.53,0.01
			C434.98,124.93,395.85,125,367.63,125.04z M267.77,116.84c34.43,0.09,70.19,0.15,97.21,0.2h2.65c27.02-0.04,64.06-0.11,98.6-0.2
			l-1.8-14.06l-18.44,2.56V94.66l6.54-0.68c-5.81-13.32-24.98-50.75-60.75-62.02l-0.9,13.72l-7.99-0.37l0.64-23.11
			c-2.38-0.89-7.58-2.22-17.22-2.22s-14.83,1.33-17.22,2.22l0.64,23.11l-7.98,0.47l-1.35-14.8c-20.99,4.87-37.65,17.16-49.57,36.59
			c-6.61,10.77-9.98,21.08-11.45,26.54l5.65,0.86l0.1,10.18l-15.56-2.32L267.77,116.84z"/>
	</g>
	<path class="st7" d="M114.41,117.4c0-38.07-30.81-68.88-68.88-68.88"/>
	<g>
		<path class="st8" d="M22.53,152.59H17.9l-1.4-3.79h-7.2l-1.4,3.79H3.26l7.64-18.93h3.99L22.53,152.59z M12.92,139.52h-0.05
			l-2.11,5.51h4.27L12.92,139.52z"/>
		<path class="st8" d="M30.03,133.67c3.51,0,6.17,1.91,6.17,5.62c0,2.84-1.56,4.75-3.88,5.48l6.52,7.82h-5.48l-5.78-7.48v7.48h-4.31
			v-18.93H30.03z M28.08,142.06c1.63,0,3.58-0.12,3.58-2.48s-1.95-2.48-3.58-2.48h-0.51v4.96H28.08z"/>
		<path class="st8" d="M52.53,135.11l-1.74,3.44c0,0-1.88-1.31-3.83-1.31c-1.47,0-2.25,0.67-2.25,1.7c0,1.06,1.79,1.81,3.95,2.73
			c2.11,0.89,4.43,2.68,4.43,5.16c0,4.52-3.44,6.1-7.14,6.1c-4.43,0-7.11-2.5-7.11-2.5l2.16-3.62c0,0,2.52,2.13,4.63,2.13
			c0.94,0,2.73-0.09,2.73-1.86c0-1.38-2.02-2-4.27-3.12c-2.27-1.12-3.6-2.89-3.6-4.86c0-3.53,3.12-5.78,6.17-5.78
			C50.1,133.32,52.53,135.11,52.53,135.11z"/>
		<path class="st8" d="M59.41,148.81h6.52v3.79H55.1v-18.93h4.31V148.81z"/>
		<path class="st8" d="M85.66,152.59h-4.63l-1.4-3.79h-7.2l-1.4,3.79h-4.63l7.64-18.93h3.99L85.66,152.59z M76.04,139.52H76
			l-2.11,5.51h4.27L76.04,139.52z"/>
		<path class="st8" d="M90.7,152.59h-4.31v-18.93h4.31l7.53,11.75h0.05v-11.75h4.31v18.93h-4.31l-7.53-11.75H90.7V152.59z"/>
		<path class="st8" d="M121.14,141.97l-3.03,10.62h-4.79l-5.39-18.93h4.79l3.23,12.99h0.12l3.44-12.99h3.26l3.44,12.99h0.11
			l3.23-12.99h4.77l-5.39,18.93h-4.77L121.14,141.97z"/>
		<path class="st8" d="M150.53,152.59h-4.63l-1.4-3.79h-7.2l-1.4,3.79h-4.63l7.64-18.93h3.99L150.53,152.59z M140.91,139.52h-0.05
			l-2.11,5.51h4.27L140.91,139.52z"/>
		<path class="st8" d="M161.33,147.25c0,3.72-2.11,5.69-5.9,5.69c-2.71,0-4.43-1.81-4.43-1.81l1.38-3.6c0,0,1.35,1.28,2.46,1.28
			c1.24,0,2.18-0.76,2.18-2.66v-12.48h4.31V147.25z"/>
		<path class="st8" d="M168.16,152.59h-4.31v-18.93h4.31V152.59z"/>
		<path class="st8" d="M176.4,133.67c5.18,0,9.54,3.95,9.54,9.45c0,5.53-4.34,9.48-9.54,9.48h-5.48v-18.93H176.4z M175.89,148.74
			c3.19,0,5.37-2.43,5.39-5.6c0-3.17-2.18-5.62-5.39-5.62h-0.67v11.22H175.89z"/>
		<path class="st8" d="M206.5,135.11l-1.74,3.44c0,0-1.88-1.31-3.83-1.31c-1.47,0-2.25,0.67-2.25,1.7c0,1.06,1.79,1.81,3.95,2.73
			c2.11,0.89,4.43,2.68,4.43,5.16c0,4.52-3.44,6.1-7.14,6.1c-4.43,0-7.11-2.5-7.11-2.5l2.16-3.62c0,0,2.52,2.13,4.63,2.13
			c0.94,0,2.73-0.09,2.73-1.86c0-1.38-2.02-2-4.27-3.12c-2.27-1.12-3.6-2.89-3.6-4.86c0-3.53,3.12-5.78,6.17-5.78
			C204.06,133.32,206.5,135.11,206.5,135.11z"/>
		<path class="st8" d="M213.37,148.81h6.52v3.79h-10.83v-18.93h4.31V148.81z"/>
	</g>
	<path class="st9" d="M119.34,117.4c0-40.53-32.3-73.32-72.22-73.32"/>
	<path class="st9" d="M109.56,117.04c0-35.5-31.4-64.22-70.2-64.22"/>
	<path class="st7" d="M114.48,117.4c0-34.5,25.3-63.04,58.38-68.09"/>
	<path class="st9" d="M109.56,117.4c0-37.38,26.62-68.18,62.08-72.74"/>
	<path class="st9" d="M119.34,117.04c0-32.39,26.14-59.14,60.2-63.57"/>
	<g>
		<path class="st10" d="M112.21,125.04h-2.66c-28.22-0.05-65.96-0.11-101.76-0.21l-4.53-0.01l3.99-31.11l8.24,1.23
			c1.05-4.6,4.51-17.45,12.94-31.29c13.37-21.94,33.13-36.08,57.24-41l-0.13-4.74l1.53-1.24c0.96-0.78,6.63-4.68,23.81-4.68
			s22.85,3.9,23.81,4.68l1.53,1.24l-0.16,5.63c46.38,12.77,67.12,63.51,70.15,71.56l9.7-1.34l3.98,31.07l-4.53,0.01
			C179.56,124.93,140.43,125,112.21,125.04z M12.35,116.84c34.43,0.09,70.19,0.15,97.21,0.2h2.65c27.02-0.04,64.06-0.11,98.6-0.2
			l-1.8-14.06l-18.44,2.56V94.66l6.54-0.68c-5.81-13.32-24.98-50.75-60.75-62.02l-0.9,13.72l-7.99-0.37l0.64-23.11
			c-2.38-0.89-7.58-2.22-17.22-2.22s-14.83,1.33-17.22,2.22l0.64,23.11l-7.98,0.47l-1.35-14.8C63.98,35.85,47.32,48.14,35.4,67.58
			c-6.61,10.77-9.98,21.08-11.45,26.54l5.65,0.86l0.1,10.18l-15.56-2.32L12.35,116.84z"/>
	</g>
</g>
</svg>
