<svg id="MARCA" xmlns="http://www.w3.org/2000/svg" viewBox="0 0 223.33 155.33"><defs><style>.cls-1,.cls-2,.cls-3{fill:#fff;}.cls-2,.cls-3{stroke:#fff;}.cls-2{stroke-miterlimit:10;}</style></defs><path class="cls-1" d="M112.21,121.37h-2.66c-28.22,0-66-.11-101.76-.2l-4.53,0,4-31.1,8.24,1.22A109.55,109.55,0,0,1,28.43,60C41.8,38,61.56,23.9,85.67,19l-.13-4.74L87.07,13c1-.78,6.63-4.68,23.81-4.68s22.85,3.9,23.81,4.68l1.53,1.25-.16,5.63c46.39,12.77,67.13,63.51,70.15,71.56l9.7-1.34,4,31.06-4.53,0C179.56,121.26,140.43,121.33,112.21,121.37Zm-99.86-8.19c34.43.09,70.19.15,97.21.19h2.65c27,0,64.06-.1,98.59-.19L209,99.12l-18.44,2.56V91l6.54-.68c-5.82-13.32-25-50.75-60.75-62L135.45,42l-8-.37.64-23.11c-2.39-.88-7.58-2.22-17.22-2.22s-14.83,1.34-17.22,2.22l.64,23.11-8,.47L85,27.32C64,32.18,47.32,44.48,35.4,63.91A104,104,0,0,0,24,90.44l5.65.86.1,10.18L14.14,99.16Z"/><path class="cls-2" d="M65.85,66.64H80.49c3.6,0,6.44,1,8.24,2.79a7.21,7.21,0,0,1,2.17,5.36v.09a7.34,7.34,0,0,1-4.15,6.8c3.65,1.4,5.9,3.52,5.9,7.75v.09c0,5.77-4.68,8.65-11.8,8.65h-15ZM79,79.39c3.06,0,5-1,5-3.34V76c0-2.07-1.62-3.24-4.54-3.24H72.61v6.67Zm1.84,12.7c3.06,0,4.91-1.08,4.91-3.42v-.09c0-2.12-1.57-3.43-5.13-3.43h-8v6.94Z"/><path class="cls-2" d="M97,82.5v-.09A16,16,0,0,1,113.42,66.1c5.94,0,9.5,2,12.43,4.86l-4.42,5.09c-2.43-2.2-4.91-3.56-8.06-3.56-5.31,0-9.14,4.42-9.14,9.82v.1c0,5.4,3.74,9.9,9.14,9.9,3.61,0,5.81-1.44,8.29-3.69l4.41,4.46a16.1,16.1,0,0,1-12.93,5.63A15.92,15.92,0,0,1,97,82.5Z"/><path class="cls-2" d="M131.61,66.64H138l14.77,19.41V66.64h6.85V98.17h-5.9l-15.27-20v20h-6.85Z"/><path class="cls-3" d="M12.74,145.32l2.32-2.78a8.22,8.22,0,0,0,5.33,2.16c1.6,0,2.57-.63,2.57-1.68V143c0-1-.61-1.5-3.59-2.27-3.6-.91-5.92-1.91-5.92-5.45v-.05c0-3.24,2.6-5.38,6.25-5.38a10.3,10.3,0,0,1,6.63,2.27l-2,2.95a8.41,8.41,0,0,0-4.64-1.75c-1.5,0-2.3.68-2.3,1.55v0c0,1.18.77,1.56,3.85,2.35,3.62.94,5.66,2.24,5.66,5.35v0c0,3.54-2.7,5.53-6.55,5.53A11.36,11.36,0,0,1,12.74,145.32Z"/><path class="cls-3" d="M30,140.27v-10.2h3.92v10.1c0,2.9,1.46,4.41,3.85,4.41s3.85-1.45,3.85-4.28V130.07h3.93v10.07c0,5.41-3,8.06-7.83,8.06S30,145.52,30,140.27Z"/><path class="cls-3" d="M49.55,130.07h8.28a6.45,6.45,0,0,1,4.67,1.58,4.12,4.12,0,0,1,1.22,3v.05a4.17,4.17,0,0,1-2.34,3.85c2.06.79,3.34,2,3.34,4.38V143c0,3.27-2.66,4.9-6.68,4.9H49.55ZM57,137.29c1.73,0,2.83-.56,2.83-1.89v-.05c0-1.17-.92-1.83-2.57-1.83H53.37v3.77Zm1,7.19c1.73,0,2.78-.62,2.78-1.94v0c0-1.2-.9-1.94-2.91-1.94H53.37v3.93Z"/><path class="cls-3" d="M67.16,139.05V139a9.07,9.07,0,0,1,9.31-9.23,9.21,9.21,0,0,1,7,2.75L81,135.4a6.57,6.57,0,0,0-4.56-2,5.28,5.28,0,0,0-5.17,5.55V139a5.29,5.29,0,0,0,5.17,5.6,6.41,6.41,0,0,0,4.69-2.09l2.5,2.53a9.14,9.14,0,0,1-7.32,3.18A9,9,0,0,1,67.16,139.05Z"/><path class="cls-3" d="M85.46,139.05V139a9.49,9.49,0,0,1,19-.06V139a9.49,9.49,0,0,1-19,.05Zm14.86,0V139a5.42,5.42,0,0,0-5.4-5.61,5.33,5.33,0,0,0-5.35,5.55V139a5.42,5.42,0,0,0,5.4,5.6A5.33,5.33,0,0,0,100.32,139.05Z"/><path class="cls-3" d="M107.92,130.07h3.62l8.36,11v-11h3.87v17.85h-3.33l-8.65-11.35v11.35h-3.87Z"/><path class="cls-3" d="M132.21,133.69h-5.43v-3.62h14.79v3.62h-5.43v14.23h-3.93Z"/><path class="cls-3" d="M144.57,130.07h8.16a7.11,7.11,0,0,1,5.2,1.81,5.64,5.64,0,0,1,1.53,4.08v0a5.55,5.55,0,0,1-3.82,5.53l4.36,6.38h-4.59l-3.83-5.71H148.5v5.71h-3.93Zm7.91,8.67c1.91,0,3-1,3-2.52v-.05c0-1.69-1.17-2.55-3.08-2.55h-3.9v5.12Z"/><path class="cls-3" d="M169.12,130h3.62l7.65,18h-4.11l-1.63-4h-7.54l-1.63,4h-4Zm4.13,10.5-2.37-5.79-2.37,5.79Z"/><path class="cls-3" d="M185,133.69h-5.43v-3.62h14.79v3.62h-5.43v14.23H185Z"/><path class="cls-3" d="M201.19,130h3.62l7.65,18h-4.11l-1.63-4h-7.55l-1.63,4h-4Zm4.13,10.5L203,134.66l-2.37,5.79Z"/></svg>